<svg preserveAspectRatio="none" overflow="visible" style="display: block;" width="160.005" height="127.997" viewBox="0 0 160.005 127.997" fill="none" xmlns="http://www.w3.org/2000/svg">
<g id="Img">
<path id="Vector" d="M36.0011 0C41.3056 0 46.3929 2.10708 50.1437 5.85771C53.8946 9.60834 56.0018 14.6953 56.0018 19.9995C56.0018 25.3037 53.8946 30.3906 50.1437 34.1412C46.3929 37.8919 41.3056 39.9989 36.0011 39.9989C30.6966 39.9989 25.6094 37.8919 21.8585 34.1412C18.1077 30.3906 16.0005 25.3037 16.0005 19.9995C16.0005 14.6953 18.1077 9.60834 21.8585 5.85771C25.6094 2.10708 30.6966 0 36.0011 0ZM128.004 0C133.309 0 138.396 2.10708 142.147 5.85771C145.897 9.60834 148.005 14.6953 148.005 19.9995C148.005 25.3037 145.897 30.3906 142.147 34.1412C138.396 37.8919 133.309 39.9989 128.004 39.9989C122.7 39.9989 117.612 37.8919 113.861 34.1412C110.111 30.3906 108.003 25.3037 108.003 19.9995C108.003 14.6953 110.111 9.60834 113.861 5.85771C117.612 2.10708 122.7 0 128.004 0ZM0 74.673C0 59.9484 11.9504 47.9987 26.6758 47.9987H37.3512C41.3263 47.9987 45.1014 48.8737 48.5015 50.4237C48.1765 52.2236 48.0265 54.0986 48.0265 55.9985C48.0265 65.5483 52.2266 74.123 58.8518 79.9979C58.8018 79.9979 58.7518 79.9979 58.6768 79.9979H5.32517C2.40008 79.9979 0 77.5979 0 74.673ZM101.328 79.9979C101.278 79.9979 101.228 79.9979 101.153 79.9979C107.803 74.123 111.979 65.5483 111.979 55.9985C111.979 54.0986 111.804 52.2486 111.503 50.4237C114.904 48.8487 118.679 47.9987 122.654 47.9987H133.329C148.055 47.9987 160.005 59.9484 160.005 74.673C160.005 77.6229 157.605 79.9979 154.68 79.9979H101.328ZM56.0018 55.9985C56.0018 49.6335 58.5304 43.5292 63.0314 39.0284C67.5324 34.5277 73.6371 31.9992 80.0025 31.9992C86.3679 31.9992 92.4726 34.5277 96.9736 39.0284C101.475 43.5292 104.003 49.6335 104.003 55.9985C104.003 62.3635 101.475 68.4679 96.9736 72.9686C92.4726 77.4694 86.3679 79.9979 80.0025 79.9979C73.6371 79.9979 67.5324 77.4694 63.0314 72.9686C58.5304 68.4679 56.0018 62.3635 56.0018 55.9985ZM32.001 121.322C32.001 102.922 46.9265 87.9977 65.327 87.9977H94.678C113.079 87.9977 128.004 102.922 128.004 121.322C128.004 124.997 125.029 127.997 121.329 127.997H38.6762C35.0011 127.997 32.001 125.022 32.001 121.322Z" fill="#F9F8F6"/>
</g>
</svg>
