<svg preserveAspectRatio="none" overflow="visible" style="display: block;" width="17" height="17" viewBox="0 0 17 17" fill="none" xmlns="http://www.w3.org/2000/svg">
<g id="Img">
<path id="Vector" d="M2.125 2.125C2.125 1.5373 1.6502 1.0625 1.0625 1.0625C0.474805 1.0625 0 1.5373 0 2.125V13.2812C0 14.7488 1.18867 15.9375 2.65625 15.9375H15.9375C16.5252 15.9375 17 15.4627 17 14.875C17 14.2873 16.5252 13.8125 15.9375 13.8125H2.65625C2.36406 13.8125 2.125 13.5734 2.125 13.2812V2.125ZM15.6254 5.00039C16.0404 4.58535 16.0404 3.91133 15.6254 3.49629C15.2104 3.08125 14.5363 3.08125 14.1213 3.49629L10.625 6.9959L8.71914 5.09004C8.3041 4.675 7.63008 4.675 7.21504 5.09004L3.49629 8.80879C3.08125 9.22383 3.08125 9.89785 3.49629 10.3129C3.91133 10.7279 4.58535 10.7279 5.00039 10.3129L7.96875 7.34785L9.87461 9.25371C10.2896 9.66875 10.9637 9.66875 11.3787 9.25371L15.6287 5.00371L15.6254 5.00039Z" fill="#9CA3AF"/>
</g>
</svg>
